<svg xmlns="http://www.w3.org/2000/svg" viewBox="0 0 800 560" width="800" height="560" role="img" aria-label="Namdroling monastery, the golden temple near Kushalnagar">
  <defs><linearGradient id="sky" x1="0" y1="0" x2="0" y2="1"><stop offset="0" stop-color="#EFE3C8"/><stop offset="0.5" stop-color="#E6E6D2"/><stop offset="1" stop-color="#D9E3D2"/></linearGradient><filter id="blur" x="-30%" y="-400%" width="160%" height="900%"><feGaussianBlur stdDeviation="14"/></filter><linearGradient id="gold" x1="0" y1="0" x2="0" y2="1"><stop offset="0" stop-color="#E8B95F"/><stop offset="1" stop-color="#C08C36"/></linearGradient></defs>
  <rect width="800" height="560" fill="url(#sky)"/>
  <path d="M0 250 C33.3 243.7 130.0 212.0 200.0 212.0 C270.0 212.0 346.7 250.7 420.0 250.0 C493.3 249.3 576.7 209.7 640.0 208.0 C703.3 206.3 773.3 234.7 800.0 240.0 L800 560 L0 560 Z" fill="#9DB59E" opacity="1"/>
  <ellipse cx="400" cy="262" rx="460" ry="14" fill="#FFFFFF" opacity="0.5" filter="url(#blur)"/>
  <path d="M0 320 C40.0 314.7 153.3 287.7 240.0 288.0 C326.7 288.3 426.7 321.3 520.0 322.0 C613.3 322.7 753.3 297.0 800.0 292.0 L800 560 L0 560 Z" fill="#6C8A72" opacity="1"/>
  <path d="M20 250 C220 300 580 300 780 244" stroke="#7C8F80" stroke-width="3" fill="none"/>
  <g><path d="M40 258 L62 262 L62 288 L40 284 Z" fill="#C8443A" opacity="0.95"/><path d="M86 263 L108 267 L108 293 L86 289 Z" fill="#E2A03F" opacity="0.95"/><path d="M132 268 L154 272 L154 298 L132 294 Z" fill="#F2E6CE" opacity="0.95"/><path d="M178 273 L200 277 L200 303 L178 299 Z" fill="#3F7A5A" opacity="0.95"/><path d="M224 278 L246 282 L246 308 L224 304 Z" fill="#3C6E9A" opacity="0.95"/><path d="M270 283 L292 287 L292 313 L270 309 Z" fill="#C8443A" opacity="0.95"/><path d="M316 288 L338 292 L338 318 L316 314 Z" fill="#E2A03F" opacity="0.95"/><path d="M362 293 L384 297 L384 323 L362 319 Z" fill="#F2E6CE" opacity="0.95"/><path d="M408 293 L430 297 L430 323 L408 319 Z" fill="#3F7A5A" opacity="0.95"/><path d="M454 288 L476 292 L476 318 L454 314 Z" fill="#3C6E9A" opacity="0.95"/><path d="M500 283 L522 287 L522 313 L500 309 Z" fill="#C8443A" opacity="0.95"/><path d="M546 278 L568 282 L568 308 L546 304 Z" fill="#E2A03F" opacity="0.95"/><path d="M592 273 L614 277 L614 303 L592 299 Z" fill="#F2E6CE" opacity="0.95"/><path d="M638 268 L660 272 L660 298 L638 294 Z" fill="#3F7A5A" opacity="0.95"/><path d="M684 263 L706 267 L706 293 L684 289 Z" fill="#3C6E9A" opacity="0.95"/><path d="M730 258 L752 262 L752 288 L730 284 Z" fill="#C8443A" opacity="0.95"/></g>
  <g transform="translate(400 470)"><rect x="-190" y="-10" width="380" height="14" fill="#D9CBA9"/><rect x="-150" y="-120" width="300" height="112" fill="#F3EBD8"/><rect x="-150" y="-120" width="300" height="12" fill="#B03A32"/><path d="M-176 -120 L176 -120 L146 -158 L-146 -158 Z" fill="url(#gold)"/><rect x="-112" y="-206" width="224" height="50" fill="#F3EBD8"/><path d="M-134 -206 L134 -206 L108 -240 L-108 -240 Z" fill="url(#gold)"/><rect x="-64" y="-278" width="128" height="40" fill="#F3EBD8"/><path d="M-84 -278 L84 -278 L60 -306 L-60 -306 Z" fill="url(#gold)"/><path d="M0 -306 L0 -334" stroke="#C08C36" stroke-width="6"/><circle cx="0" cy="-340" r="10" fill="#E8B95F"/><path d="M-40 -96 L40 -96 L40 -8 L-40 -8 Z" fill="#8C3B32"/><path d="M-32 -88 L32 -88 L32 -8 L-32 -8 Z" fill="#C08C36"/><rect x="-124" y="-96" width="34" height="56" fill="#2F4A38"/><rect x="-72" y="-96" width="24" height="56" fill="#2F4A38"/><rect x="48" y="-96" width="24" height="56" fill="#2F4A38"/><rect x="90" y="-96" width="34" height="56" fill="#2F4A38"/><rect x="-92" y="-196" width="30" height="40" fill="#2F4A38"/><rect x="-16" y="-196" width="32" height="40" fill="#2F4A38"/><rect x="62" y="-196" width="30" height="40" fill="#2F4A38"/></g>
  <path d="M0 474 L800 460 L800 560 L0 560 Z" fill="#3F5F47"/>
  <path d="M340 560 L360 474 L440 474 L460 560 Z" fill="#C6B693"/>
  <g transform="translate(80 476) scale(0.9)"><path d="M0 0 L0 -52" stroke="#2A4632" stroke-width="4"/><ellipse cx="0" cy="-58" rx="11" ry="8" fill="#2A4632"/><ellipse cx="-10" cy="-46" rx="9" ry="6" fill="#2A4632"/><ellipse cx="10" cy="-42" rx="8" ry="6" fill="#2A4632"/></g>
  <g transform="translate(722 468) scale(0.9)"><path d="M0 0 L0 -52" stroke="#2A4632" stroke-width="4"/><ellipse cx="0" cy="-58" rx="11" ry="8" fill="#2A4632"/><ellipse cx="-10" cy="-46" rx="9" ry="6" fill="#2A4632"/><ellipse cx="10" cy="-42" rx="8" ry="6" fill="#2A4632"/></g>
</svg>
